<svg width="198" height="198" viewBox="0 0 198 198" fill="none" xmlns="http://www.w3.org/2000/svg">
<path d="M77.0037 161.761C77.844 162.001 78.6843 162.361 79.5246 162.602C78.6843 162.361 77.844 162.121 77.0037 161.761Z" fill="#5F273B"/>
<path d="M103.893 147.118L105.094 102.222L105.814 97.2999L115.538 92.4982L120.099 82.8947L119.259 72.2108L115.057 54.0843H115.538L164.996 93.0984C164.875 91.4178 164.635 89.8572 164.395 88.1766C163.555 82.8947 162.114 77.8529 160.074 73.0512C155.632 62.4873 148.55 53.364 139.546 46.4015C131.744 40.3994 122.74 35.9577 112.777 33.797C108.215 32.8366 103.533 32.3564 98.7316 32.3564C93.9298 32.3564 89.2481 32.8366 84.6865 33.797C73.8826 36.0778 64.1591 40.9996 55.9961 47.842C54.7957 48.9224 53.4752 50.0028 52.3948 51.0832C49.0336 54.4444 45.9125 58.0457 43.2715 62.0072C43.1515 62.2473 42.9114 62.4873 42.7914 62.7274C37.9896 70.1701 34.6284 78.6932 33.0678 87.9365C32.9478 88.2967 32.9478 88.6568 32.9478 89.137C32.7077 90.5775 32.5877 92.1381 32.4676 93.5786C32.3476 95.3792 32.2275 97.0598 32.2275 98.8605C32.2275 100.541 32.3476 102.222 32.4676 103.902C32.4676 104.382 32.5877 104.983 32.5877 105.463C32.5877 105.943 32.7077 106.543 32.7077 107.023C33.3079 112.065 34.5084 116.867 36.189 121.429C40.1504 132.473 46.9929 142.076 55.636 149.519C57.4366 151.079 59.2373 152.4 61.158 153.72C61.7582 154.08 62.3584 154.561 62.9586 154.921C63.919 155.521 64.8793 156.121 65.8397 156.721C66.3199 156.961 66.68 157.202 67.1602 157.442C68.8408 158.402 70.6414 159.242 72.4421 159.963C73.2824 160.323 74.1227 160.683 75.083 161.043C75.6832 161.283 76.4035 161.523 77.0037 161.763C77.844 162.003 78.6843 162.363 79.5246 162.604C81.5654 163.204 83.4861 163.684 85.6468 164.164C86.007 164.284 86.3671 164.284 86.7272 164.404C87.0874 164.524 87.5675 164.524 87.9277 164.644C88.2878 164.764 88.6479 164.764 89.0081 164.884C90.0885 165.004 91.1688 165.124 92.1292 165.244C92.3693 165.244 92.6094 165.244 92.8494 165.365C93.9298 165.485 95.0102 165.485 96.0906 165.605C96.9309 165.605 97.7712 165.605 98.6115 165.605H98.7316C99.2117 165.605 99.5719 165.605 100.052 165.605C100.532 165.605 100.892 165.605 101.373 165.605C104.974 165.485 108.455 165.004 111.816 164.404C111.936 164.404 112.056 164.404 112.176 164.284C105.694 158.522 98.9717 152.64 98.7316 152.52L103.893 147.118Z" fill="#5F273B"/>
<path d="M87.8079 164.524C87.4477 164.404 86.9676 164.404 86.6074 164.284C87.0876 164.284 87.4477 164.404 87.8079 164.524C88.168 164.644 88.5281 164.644 88.8882 164.764C88.5281 164.644 88.168 164.524 87.8079 164.524Z" fill="#5F273B"/>
<path d="M115.417 53.9639H114.937L119.139 72.0904L119.979 82.7743L115.417 92.3778L105.694 97.1795L104.974 102.101L103.773 146.997L98.6113 152.159C98.8514 152.399 105.454 158.282 112.056 163.924C116.378 162.963 120.699 161.643 124.661 159.962C140.506 153.24 153.231 140.515 159.954 124.669C161.394 121.308 162.474 117.707 163.435 114.106C163.795 112.545 164.155 111.105 164.395 109.544C164.515 109.064 164.515 108.464 164.635 107.983C164.875 106.663 164.995 105.222 165.115 103.782C165.235 102.101 165.355 100.421 165.355 98.7401C165.355 96.9394 165.235 95.1388 165.115 93.3381C165.115 93.2181 165.115 93.098 165.115 92.8579L115.417 53.9639Z" fill="#4C1A2C"/>
<path d="M170.397 97.2996C170.157 87.5761 168.116 78.3327 164.275 69.8097C164.035 69.2094 163.795 68.6092 163.435 68.1291C154.551 49.1622 137.625 34.877 116.978 29.4751C111.096 27.9145 104.974 27.0742 98.6112 27.0742C92.2489 27.0742 86.1267 27.9145 80.2446 29.4751C52.2745 36.7977 31.0268 60.6864 27.4255 89.977C27.1854 91.7776 27.0654 93.6983 26.9453 95.4989C26.9453 95.9791 26.9453 96.3392 26.9453 96.8194C26.9453 97.5397 26.9453 98.1399 26.9453 98.8602C26.9453 99.5804 26.9453 100.421 26.9453 101.141C27.9057 131.032 47.1126 156.241 73.6422 166.084C74.0023 166.204 74.4825 166.325 74.8426 166.565C76.6433 167.165 78.4439 167.765 80.2446 168.245C80.4847 168.365 80.8448 168.365 81.0849 168.485C81.325 168.605 81.6851 168.605 81.9252 168.725C87.2071 170.046 92.8491 170.646 98.4912 170.646C99.0914 170.646 99.6916 170.646 100.172 170.646C101.852 170.646 103.413 170.526 105.094 170.406C108.815 170.046 112.416 169.446 115.897 168.605C116.138 168.605 116.378 168.485 116.618 168.365C137.385 162.963 154.431 148.438 163.435 129.471C163.675 128.991 163.915 128.511 164.155 128.031C166.316 122.989 167.996 117.707 169.077 112.185C169.197 111.345 169.317 110.504 169.437 109.664C169.917 106.183 170.277 102.702 170.277 99.1003C170.397 98.2599 170.397 97.7798 170.397 97.2996ZM164.995 103.782C164.875 105.222 164.755 106.543 164.515 107.983C164.395 108.464 164.395 109.064 164.275 109.544C164.035 111.105 163.675 112.665 163.315 114.106C162.474 117.707 161.274 121.308 159.833 124.669C153.111 140.515 140.386 153.24 124.541 159.962C120.579 161.643 116.258 163.083 111.936 163.924C111.816 163.924 111.696 163.924 111.576 164.044C108.215 164.764 104.733 165.124 101.132 165.244C100.652 165.244 100.292 165.244 99.8116 165.244C99.3315 165.244 98.9713 165.244 98.4912 165.244H98.3711C97.5308 165.244 96.6905 165.244 95.8502 165.244C94.7698 165.244 93.6894 165.124 92.609 165.004C92.369 165.004 92.1289 165.004 91.8888 164.884C90.8084 164.764 89.728 164.644 88.7677 164.524C88.4075 164.524 88.0474 164.404 87.6873 164.284C87.3271 164.164 86.847 164.164 86.4868 164.044C86.1267 164.044 85.7666 163.924 85.4064 163.804C83.3657 163.444 81.325 162.843 79.2842 162.243C78.4439 162.003 77.6036 161.763 76.7633 161.403C76.1631 161.163 75.4428 160.923 74.8426 160.683C74.0023 160.322 73.042 159.962 72.2017 159.602C70.401 158.882 68.6004 157.922 66.9198 157.081C66.4396 156.841 65.9594 156.601 65.5993 156.361C64.6389 155.761 63.6786 155.161 62.7182 154.56C62.118 154.2 61.5178 153.72 60.9176 153.36C58.9969 152.039 57.1962 150.599 55.3956 149.158C46.6324 141.716 39.91 131.992 35.9486 121.068C34.268 116.507 33.0675 111.705 32.4673 106.663C32.3473 106.183 32.3473 105.583 32.3473 105.102C32.3473 104.622 32.2272 104.022 32.2272 103.542C32.1072 101.861 31.9871 100.181 31.9871 98.5C31.9871 96.6994 32.1072 95.0188 32.2272 93.2181C32.3473 91.7776 32.5874 90.217 32.7074 88.7765C32.7074 88.4164 32.8274 88.0563 32.8274 87.5761C34.388 78.4528 37.7492 69.9297 42.551 62.367C42.671 62.1269 42.9111 61.8868 43.0311 61.6467C45.6721 57.6853 48.6732 53.9639 52.1544 50.7228C53.3549 49.5223 54.5553 48.4419 55.7557 47.4816C63.9187 40.6391 73.6422 35.7173 84.4461 33.4365C89.0077 32.4762 93.6894 31.996 98.4912 31.996C103.293 31.996 107.975 32.4762 112.536 33.4365C122.62 35.8374 131.623 40.279 139.426 46.2812C148.309 53.2437 155.392 62.367 159.953 72.9308C161.994 77.7325 163.435 82.7743 164.275 88.0563C164.515 89.6168 164.755 91.2974 164.875 92.978C164.875 93.0981 164.875 93.2181 164.875 93.4582C164.995 95.2589 165.115 97.0595 165.115 98.8602C165.115 100.421 165.115 102.101 164.995 103.782Z" fill="#CAA383"/>
<path d="M116.615 54.8049C107.371 47.2422 93.5664 46.4019 83.4828 52.7642C75.68 57.6859 71.3584 64.7685 71.3584 74.0118C71.3584 83.9754 76.4002 91.2981 85.0433 96.2199C86.0037 96.7 86.3638 98.2606 86.3638 98.2606L86.844 102.582H90.4453V105.223C90.4453 105.223 93.6865 112.546 93.9265 112.786C92.366 114.587 90.3252 118.788 90.3252 118.788C90.3252 118.788 92.366 122.99 93.9265 124.79C92.366 126.591 90.3252 130.792 90.3252 130.792L93.9265 137.035L90.3252 143.757L98.8483 151.92C98.8483 151.92 98.8483 150.72 98.8483 149.999C98.8483 131.753 98.8483 102.462 98.8483 102.462H100.769C100.769 102.462 100.769 131.753 100.769 149.999C100.769 150.479 100.769 151.32 100.769 151.92C104.25 152.16 106.651 147.238 106.651 145.558C106.531 129.232 106.651 120.949 106.651 104.623C106.651 104.143 106.651 102.582 106.651 102.582H110.012L110.733 98.6207C110.733 98.6207 111.093 96.7001 112.173 96.0998C128.499 87.3367 130.66 66.4491 116.615 54.8049ZM98.6082 93.5789C93.5664 93.5789 89.0048 91.7783 85.4035 88.7772C85.4035 88.4171 85.5235 88.177 85.5235 87.8168C86.7239 82.4149 90.0852 78.9336 95.4871 77.6131C100.889 76.4127 105.451 78.0933 108.812 82.4149C110.372 84.3356 111.213 86.4964 111.453 89.0173C108.092 91.8983 103.53 93.5789 98.6082 93.5789ZM91.0455 66.3291C91.0455 66.209 91.0455 66.089 91.0455 66.089C91.5257 63.0879 94.1666 60.687 97.4078 60.2069C100.529 59.7267 103.89 61.4073 105.211 64.2883C105.931 65.7289 106.171 67.2894 105.811 68.85C105.811 68.97 105.811 69.0901 105.811 69.0901C105.331 71.8511 102.81 74.372 99.9287 74.8522C98.8483 75.0922 97.888 75.0922 96.8076 74.8522C92.9662 74.2519 90.2052 70.1705 91.0455 66.3291ZM113.494 87.0966C113.494 86.8565 113.374 86.6164 113.254 86.3763C111.813 81.3345 108.572 77.8532 103.53 75.9325C109.292 72.0912 109.292 65.4888 106.051 61.6474C102.57 57.4459 96.3274 56.8456 92.2459 60.2069C90.0852 62.0075 88.8847 64.2883 88.7647 66.9293C88.5246 70.7707 90.2052 73.6517 93.4464 75.9325C91.8858 76.4127 90.5653 77.133 89.3649 77.9733C86.2438 80.2541 84.3231 83.2552 83.4828 86.8565C80.3616 83.3752 78.4409 78.8136 78.4409 73.7718C78.4409 62.8478 87.4442 54.0846 98.4882 54.0846C109.532 54.0846 118.535 62.9679 118.535 73.7718C118.655 78.9336 116.735 83.6153 113.494 87.0966Z" fill="white"/>
<circle cx="98.6051" cy="98.8612" r="72.0223" transform="rotate(149.911 98.6051 98.8612)" fill="url(#paint0_radial_27_83)"/>
<defs>
<radialGradient id="paint0_radial_27_83" cx="0" cy="0" r="1" gradientUnits="userSpaceOnUse" gradientTransform="translate(154.314 82.0044) rotate(157.842) scale(137.916 108.406)">
<stop offset="0.504063" stop-opacity="0"/>
<stop offset="0.931871"/>
</radialGradient>
</defs>
</svg>
