<svg width="141" height="141" viewBox="0 0 141 141" fill="none" xmlns="http://www.w3.org/2000/svg">
<path d="M70.9727 4.56641C34.8719 4.56641 5.61133 33.8097 5.61133 70.1764C5.61133 104.294 31.8319 132.412 65.2726 135.411C67.1726 135.411 69.0727 135.786 70.9727 135.786C102.133 135.786 128.354 113.666 134.814 84.0482C135.574 79.5492 136.334 75.0503 136.334 70.5513C135.954 33.8097 106.693 4.56641 70.9727 4.56641Z" fill="#60293D"/>
<path d="M27.6484 108.801L50.449 135.42C51.589 135.795 65.6493 139.544 66.4093 139.919C68.3093 139.919 70.2094 140.294 71.7294 140.294C72.4894 140.294 73.6294 140.294 74.3894 140.294C74.7694 140.294 75.1495 140.294 75.1495 140.294C75.9095 140.294 76.2895 140.294 77.0495 140.294C77.4295 140.294 77.8095 140.294 77.8095 140.294C78.5696 140.294 78.9496 140.294 79.7096 139.919C80.0896 139.919 80.4696 139.919 80.4696 139.919C81.2296 139.919 81.6096 139.544 82.3696 139.544C82.7496 139.544 82.7496 139.544 83.1296 139.544C83.5096 139.544 83.5097 139.544 83.5097 139.544C84.2697 139.544 85.0297 139.169 85.7897 139.169C86.1697 139.169 86.5497 139.169 86.5497 138.794C87.3098 138.794 87.6897 138.419 88.0697 138.419C88.4498 138.419 88.8298 138.044 89.2098 138.044C89.5898 138.044 89.5898 138.044 89.9698 137.669C90.3498 137.669 90.7298 137.294 90.7298 137.294C91.1098 137.294 91.4898 136.919 91.4898 136.919C92.2498 136.544 92.6298 136.544 93.3898 136.17C93.7698 136.17 94.1499 135.795 94.1499 135.795C94.9099 135.42 95.2899 135.42 96.0499 135.045C96.4299 135.045 96.8099 134.67 97.1899 134.67C97.5699 134.295 97.95 134.295 98.33 133.92C98.71 133.92 99.09 133.545 99.47 133.545C99.85 133.17 100.23 133.17 100.61 132.795C100.99 132.42 101.37 132.42 101.75 132.045C102.13 131.671 102.51 131.671 102.89 131.296C103.65 130.921 104.03 130.546 104.79 130.171C105.17 129.796 105.55 129.796 105.93 129.421C106.31 129.046 106.69 129.046 107.07 128.671C107.45 128.296 107.83 128.296 107.83 127.921C108.21 127.546 108.59 127.172 108.97 127.172C109.35 126.797 109.73 126.797 109.73 126.422C110.11 126.047 110.49 125.672 110.87 125.672C111.25 125.672 111.25 125.297 111.63 125.297C112.39 124.547 113.53 123.797 114.29 123.048C114.29 123.048 114.29 123.048 114.67 122.673C115.05 122.298 115.43 121.923 115.81 121.548C116.19 121.173 116.19 121.173 116.57 120.798C116.95 120.423 117.33 120.048 117.71 119.673C118.09 119.298 118.09 119.298 118.47 118.923C118.85 118.549 119.23 118.174 119.61 117.799L119.99 117.424C121.13 115.924 122.65 114.424 123.79 112.925L124.171 112.55C124.551 112.175 124.931 111.8 125.311 111.05C125.311 110.675 125.691 110.675 125.691 110.3C126.071 109.926 126.451 109.551 126.831 108.801C126.831 108.801 126.831 108.426 127.211 108.426C128.351 106.926 129.111 105.052 130.251 103.552C130.251 103.552 130.251 103.177 130.631 103.177C132.911 98.3032 134.811 93.4293 136.331 88.1805V87.8056C137.091 83.6815 138.991 60.8118 138.991 56.3128L115.43 27.8193L69.0693 80.3073L27.6484 108.801Z" fill="#31151E"/>
<path d="M110.114 31.5684H33.3527C31.4527 31.5684 29.9326 33.068 29.9326 34.9426V104.677C29.9326 106.551 31.4527 108.051 33.3527 108.051H110.114C112.014 108.051 113.534 106.551 113.534 104.677V34.9426C113.534 33.4429 112.014 31.5684 110.114 31.5684Z" fill="#E9D9C4"/>
<path d="M113.91 78.4307H30.3086V108.424H113.91V78.4307Z" fill="#D9CBB8"/>
<path d="M34.4873 78.4316V82.1808C35.2473 82.1808 36.0073 82.1808 36.3873 82.1808V78.4316H34.4873Z" fill="#B5AB9D"/>
<path d="M43.2266 78.4316V82.1808C43.9866 82.1808 44.7466 82.1808 45.1266 82.1808V78.4316H43.2266Z" fill="#B5AB9D"/>
<path d="M51.207 78.4316V82.1808C51.967 82.1808 52.7271 82.1808 53.1071 82.1808V78.4316H51.207Z" fill="#B5AB9D"/>
<path d="M59.5664 78.4316V82.1808C60.3264 82.1808 61.0864 82.1808 61.4664 82.1808V78.4316H59.5664Z" fill="#B5AB9D"/>
<path d="M83.5098 78.4316V82.1808C84.2698 82.1808 85.0298 82.1808 85.4098 82.1808V78.4316H83.5098Z" fill="#B5AB9D"/>
<path d="M91.8721 78.4316V82.1808C92.6321 82.1808 93.3921 82.1808 93.7721 82.1808V78.4316H91.8721Z" fill="#B5AB9D"/>
<path d="M99.8496 78.4316V82.1808C100.61 82.1808 101.37 82.1808 101.75 82.1808V78.4316H99.8496Z" fill="#B5AB9D"/>
<path d="M108.209 78.4316V82.1808C108.969 82.1808 109.729 82.1808 110.109 82.1808V78.4316H108.209Z" fill="#B5AB9D"/>
<path d="M67.5469 78.4316V82.1808C68.3069 82.1808 68.6869 82.1808 69.4469 82.1808V78.4316H67.5469Z" fill="#B5AB9D"/>
<path d="M75.9062 78.4316V82.1808C76.6663 82.1808 77.4263 82.1808 77.8063 82.1808V78.4316H75.9062Z" fill="#B5AB9D"/>
<path d="M34.4912 104.299V108.048C35.2512 108.048 36.0112 108.048 36.3913 108.048V104.299H34.4912Z" fill="#B5AB9D"/>
<path d="M43.2295 104.299V108.048C43.9895 108.048 44.7495 108.048 45.1295 108.048V104.299H43.2295Z" fill="#B5AB9D"/>
<path d="M51.2109 104.299V108.048C51.971 108.048 52.731 108.048 53.111 108.048V104.299H51.2109Z" fill="#B5AB9D"/>
<path d="M59.5703 104.299V108.048C60.3303 108.048 61.0903 108.048 61.4704 108.048V104.299H59.5703Z" fill="#B5AB9D"/>
<path d="M83.5117 104.299V108.048C84.2717 108.048 85.0318 108.048 85.4118 108.048V104.299H83.5117Z" fill="#B5AB9D"/>
<path d="M91.876 104.299V108.048C92.636 108.048 93.396 108.048 93.776 108.048V104.299H91.876Z" fill="#B5AB9D"/>
<path d="M99.8535 104.299V108.048C100.614 108.048 101.374 108.048 101.754 108.048V104.299H99.8535Z" fill="#B5AB9D"/>
<path d="M108.211 104.299V108.048C108.971 108.048 109.731 108.048 110.111 108.048V104.299H108.211Z" fill="#B5AB9D"/>
<path d="M67.5508 104.299V108.048C68.3108 108.048 68.6908 108.048 69.4508 108.048V104.299H67.5508Z" fill="#B5AB9D"/>
<path d="M75.9121 104.299V108.048C76.6721 108.048 77.4321 108.048 77.8121 108.048V104.299H75.9121Z" fill="#B5AB9D"/>
<path d="M111.252 70.1884C85.031 70.1884 58.8104 70.1884 32.5898 70.1884C32.5898 62.6902 32.5898 47.6936 32.5898 40.1953C58.8104 40.1953 85.031 40.1953 111.252 40.1953C111.252 47.6936 111.252 62.6902 111.252 70.1884Z" fill="#B5AB9D"/>
<path d="M48.9297 76.1849C48.9297 75.435 48.9297 74.3103 48.9297 73.1855C50.8297 73.1855 52.7298 73.1855 54.2498 73.1855C54.2498 73.9354 54.2498 75.0601 54.2498 76.1849C52.7298 76.1849 50.8297 76.1849 48.9297 76.1849Z" fill="#B5AB9D"/>
<path d="M40.9492 76.1849C40.9492 75.435 40.9492 74.3103 40.9492 73.1855C42.8493 73.1855 44.7493 73.1855 46.2693 73.1855C46.2693 73.9354 46.2693 75.0601 46.2693 76.1849C44.3693 76.1849 42.8493 76.1849 40.9492 76.1849Z" fill="#B5AB9D"/>
<path d="M32.9697 76.1849C32.9697 75.435 32.9697 74.3103 32.9697 73.1855C34.8698 73.1855 36.7698 73.1855 38.2898 73.1855C38.2898 73.9354 38.2898 75.0601 38.2898 76.1849C36.3898 76.1849 34.4898 76.1849 32.9697 76.1849Z" fill="#B5AB9D"/>
<path d="M57.2891 73.1855C59.1891 73.1855 61.0892 73.1855 62.6092 73.1855C62.6092 73.9354 62.6092 75.0601 62.6092 76.1849C60.7092 76.1849 58.8091 76.1849 57.2891 76.1849C57.2891 75.0601 57.2891 74.3103 57.2891 73.1855Z" fill="#B5AB9D"/>
<path d="M65.2686 73.1855C67.1686 73.1855 69.0686 73.1855 70.5886 73.1855C70.5886 73.9354 70.5886 75.0601 70.5886 76.1849C68.6886 76.1849 66.7886 76.1849 65.2686 76.1849C65.2686 75.0601 65.2686 74.3103 65.2686 73.1855Z" fill="#B5AB9D"/>
<path d="M73.2529 73.1855C75.153 73.1855 77.053 73.1855 78.573 73.1855C78.573 73.9354 78.573 75.0601 78.573 76.1849C76.673 76.1849 74.773 76.1849 73.2529 76.1849C73.2529 75.0601 73.2529 74.3103 73.2529 73.1855Z" fill="#B5AB9D"/>
<path d="M81.6104 73.1855C83.5104 73.1855 85.4104 73.1855 86.9304 73.1855C86.9304 73.9354 86.9304 75.0601 86.9304 76.1849C85.0304 76.1849 83.1304 76.1849 81.6104 76.1849C81.6104 75.0601 81.6104 74.3103 81.6104 73.1855Z" fill="#B5AB9D"/>
<path d="M89.5889 73.1855C91.4889 73.1855 93.389 73.1855 94.909 73.1855C94.909 73.9354 94.909 75.0601 94.909 76.1849C93.009 76.1849 91.1089 76.1849 89.5889 76.1849C89.5889 75.0601 89.5889 74.3103 89.5889 73.1855Z" fill="#B5AB9D"/>
<path d="M97.5723 73.1855C99.4723 73.1855 101.372 73.1855 102.892 73.1855C102.892 73.9354 102.892 75.0601 102.892 76.1849C100.992 76.1849 99.0923 76.1849 97.5723 76.1849C97.5723 75.0601 97.5723 74.3103 97.5723 73.1855Z" fill="#B5AB9D"/>
<path d="M105.932 73.1855C107.832 73.1855 109.732 73.1855 111.252 73.1855C111.252 73.9354 111.252 75.0601 111.252 76.1849C109.352 76.1849 107.452 76.1849 105.932 76.1849C105.932 75.0601 105.932 74.3103 105.932 73.1855Z" fill="#B5AB9D"/>
<path d="M38.2898 37.5686C36.3898 37.5686 34.4898 37.5686 32.9697 37.5686C32.9697 36.8188 32.9697 35.6941 32.9697 34.5693C34.8698 34.5693 36.7698 34.5693 38.2898 34.5693C38.2898 35.6941 38.2898 36.4439 38.2898 37.5686Z" fill="#B5AB9D"/>
<path d="M40.9492 37.5686C40.9492 36.8188 40.9492 35.6941 40.9492 34.5693C42.8493 34.5693 44.7493 34.5693 46.2693 34.5693C46.2693 35.3192 46.2693 36.4439 46.2693 37.5686C44.3693 37.5686 42.8493 37.5686 40.9492 37.5686Z" fill="#B5AB9D"/>
<path d="M48.9297 37.5686C48.9297 36.8188 48.9297 35.6941 48.9297 34.5693C50.8297 34.5693 52.7298 34.5693 54.2498 34.5693C54.2498 35.3192 54.2498 36.4439 54.2498 37.5686C52.7298 37.5686 50.8297 37.5686 48.9297 37.5686Z" fill="#B5AB9D"/>
<path d="M57.2891 34.9443C59.1891 34.9443 61.0892 34.9443 62.6092 34.9443C62.6092 35.6942 62.6092 36.8189 62.6092 37.9436C60.7092 37.9436 58.8091 37.9436 57.2891 37.9436C57.2891 36.8189 57.2891 35.6942 57.2891 34.9443Z" fill="#B5AB9D"/>
<path d="M65.2686 34.9443C67.1686 34.9443 69.0686 34.9443 70.5886 34.9443C70.5886 35.6942 70.5886 36.8189 70.5886 37.9436C68.6886 37.9436 66.7886 37.9436 65.2686 37.9436C65.2686 36.8189 65.2686 35.6942 65.2686 34.9443Z" fill="#B5AB9D"/>
<path d="M73.2529 34.9443C75.153 34.9443 77.053 34.9443 78.573 34.9443C78.573 35.6942 78.573 36.8189 78.573 37.9436C76.673 37.9436 74.773 37.9436 73.2529 37.9436C73.2529 36.8189 73.2529 35.6942 73.2529 34.9443Z" fill="#B5AB9D"/>
<path d="M81.6104 34.9443C83.5104 34.9443 85.4104 34.9443 86.9304 34.9443C86.9304 35.6942 86.9304 36.8189 86.9304 37.9436C85.0304 37.9436 83.1304 37.9436 81.6104 37.9436C81.6104 36.8189 81.6104 35.6942 81.6104 34.9443Z" fill="#B5AB9D"/>
<path d="M89.5889 34.9443C91.4889 34.9443 93.389 34.9443 94.909 34.9443C94.909 35.6942 94.909 36.8189 94.909 37.9436C93.009 37.9436 91.1089 37.9436 89.5889 37.9436C89.5889 36.8189 89.5889 35.6942 89.5889 34.9443Z" fill="#B5AB9D"/>
<path d="M97.5723 34.9443C99.4723 34.9443 101.372 34.9443 102.892 34.9443C102.892 35.6942 102.892 36.8189 102.892 37.9436C100.992 37.9436 99.0923 37.9436 97.5723 37.9436C97.5723 36.8189 97.5723 35.6942 97.5723 34.9443Z" fill="#B5AB9D"/>
<path d="M105.932 34.9443C107.832 34.9443 109.732 34.9443 111.252 34.9443C111.252 35.6942 111.252 36.8189 111.252 37.9436C109.352 37.9436 107.452 37.9436 105.932 37.9436C105.932 36.8189 105.932 35.6942 105.932 34.9443Z" fill="#B5AB9D"/>
<path d="M82.3681 56.6863C76.288 59.6856 70.5878 63.0599 64.8877 66.0592C64.8877 59.6856 64.8877 53.687 64.8877 47.3135C70.5878 50.3128 76.288 53.687 82.3681 56.6863Z" fill="#231F20"/>
<path d="M40.1912 97.5511C41.3312 97.5511 42.0912 97.1762 42.8512 96.0514H44.3713C43.9913 96.8013 43.2312 97.5511 42.4712 97.926C41.7112 98.3009 40.9512 98.6758 39.8112 98.6758C38.6711 98.6758 37.5311 98.3009 37.1511 97.5511C36.3911 96.8013 36.3911 95.6765 36.7711 94.5518C37.1511 93.427 37.5311 92.3023 38.6711 91.5525C39.8112 90.8027 40.5712 90.4277 42.0912 90.4277C43.2312 90.4277 44.3713 90.8027 44.7513 91.5525C45.5113 92.3023 45.5113 93.427 45.1313 94.5518V95.3016H37.9111C37.9111 96.0515 37.9111 96.8013 38.2911 97.1762C38.6711 97.1762 39.4312 97.5511 40.1912 97.5511ZM41.7112 90.8026C40.9512 90.8026 40.1912 91.1776 39.4311 91.5525C38.6711 91.9274 38.2911 92.6772 37.9111 93.4271H43.6113C43.6113 92.6772 43.6112 91.9274 43.2312 91.5525C42.8512 91.1776 42.4712 90.8026 41.7112 90.8026Z" fill="#010101"/>
<path d="M48.932 98.3019H47.792L50.832 86.3047H51.9721L48.932 98.3019Z" fill="#010101"/>
<path d="M54.2533 98.3019H53.1133L56.1534 86.3047H57.2933L54.2533 98.3019Z" fill="#010101"/>
<path d="M65.6528 89.6787C66.7928 89.6787 67.9328 90.0536 68.3128 90.8035C69.0728 91.5533 69.0728 92.678 68.6928 93.8028C68.3128 94.9275 67.9328 96.0522 66.7927 96.8021C65.6527 97.5519 64.5127 97.9268 63.3727 97.9268C62.2327 97.9268 61.0926 97.5519 60.7126 96.8021C59.9526 96.0522 59.9526 94.9275 60.3326 93.8028C60.7126 92.678 61.0926 91.5533 62.2327 90.8035C62.9927 90.4285 64.1327 89.6787 65.6528 89.6787ZM63.7527 97.5519C64.5127 97.5519 65.6527 97.177 66.0327 96.8021C66.7927 96.0522 67.1728 95.3024 67.1728 94.5526C67.5528 93.8028 67.1727 92.678 66.7927 92.3031C66.4127 91.5533 65.6527 91.5533 64.8927 91.5533C64.1327 91.5533 62.9927 91.9282 62.6127 92.3031C61.8527 93.0529 61.4726 93.8028 61.4726 94.5526C61.0926 95.3024 61.4727 96.4272 61.8527 96.8021C62.2327 97.177 62.6127 97.5519 63.7527 97.5519Z" fill="#010101"/>
<path d="M74.0123 96.8034L73.6323 98.678H72.1123L72.4923 96.8034H74.0123ZM72.8723 95.3038L74.3923 87.0557H75.9124L73.6323 95.3038H72.8723Z" fill="#010101"/>
<path d="M31.0686 98.3041H32.2086L35.2487 87.4316H33.7286L32.5886 92.3055H30.3086V93.4303H32.2086L31.0686 98.3041Z" fill="#010101"/>
<path d="M86.1697 87.4316H80.8496L77.8096 98.6791H83.1297C83.8897 98.6791 84.2697 98.6791 85.0297 98.3042C86.5497 97.9292 87.6898 96.8045 88.0698 95.6797C88.0698 95.3048 88.0698 94.9299 88.0698 94.555C88.0698 93.8052 87.3098 93.0554 86.5498 92.6804C87.6898 92.3055 88.4498 91.5557 88.8298 90.056C89.2098 89.3062 88.8298 88.5564 88.4498 88.1815C88.0698 87.8066 87.3098 87.4316 86.1697 87.4316ZM86.9297 95.3048C86.9297 96.0547 86.5497 96.4296 85.7897 96.8045C85.4097 97.1794 84.6497 97.1794 83.8897 97.1794H79.7096L80.8496 93.4303H85.0297C85.7897 93.4303 86.5497 93.8052 86.9297 94.1801C86.9297 94.555 86.9297 94.9299 86.9297 95.3048ZM87.6897 90.431C87.6897 90.8059 87.3098 91.1808 87.3098 91.1808C86.5498 91.9306 85.7897 92.3055 85.0297 92.3055H81.2296L81.9896 88.5564H85.7897C86.5497 88.5564 86.9298 88.9313 87.3098 89.3062C87.3098 89.6811 87.6897 89.6811 87.6897 90.056C87.6897 90.056 87.6897 90.056 87.6897 90.431Z" fill="#010101"/>
<path d="M94.9096 90.0566C93.7696 90.0566 92.6295 90.4316 91.4895 91.1814C90.7295 91.9312 89.9695 93.056 89.5894 94.1807C89.2094 95.3054 89.2095 96.4302 89.9695 97.18C90.7295 97.9298 91.4895 98.3048 92.6295 98.3048C93.7695 98.3048 94.9096 97.9298 96.0496 97.18C96.8096 96.4302 97.5697 95.3054 97.9497 94.1807C98.3297 93.056 98.3297 91.9312 97.5696 91.1814C97.1896 90.4316 96.0496 90.0566 94.9096 90.0566ZM96.8096 94.1807C96.4296 94.9305 96.0496 96.0553 95.2896 96.4302C94.5296 97.18 93.7696 97.18 93.0096 97.18C92.2495 97.18 91.4895 96.8051 91.1095 96.4302C90.7295 95.6804 90.7295 94.9305 90.7295 94.1807C90.7295 93.4309 91.4895 92.3061 92.2495 91.9312C93.0096 91.1814 93.7695 91.1814 94.5296 91.1814C95.2896 91.1814 96.0496 91.5563 96.4296 91.9312C96.8096 92.681 96.8096 93.4309 96.8096 94.1807Z" fill="#010101"/>
<path d="M106.691 90.8044C106.311 90.4295 105.931 90.0546 105.931 90.0546C105.551 90.0546 105.171 89.6797 104.411 89.6797C103.651 89.6797 103.271 89.6797 102.891 90.0546C102.131 90.4295 101.751 90.8044 101.371 91.1793L101.751 89.6797H100.611L98.3311 98.3027H99.4711L100.611 93.4288C100.991 92.679 101.371 91.9292 101.751 91.5543C102.511 91.1793 102.891 90.8044 103.651 90.8044C104.411 90.8044 104.791 91.1793 105.171 91.5543C105.551 91.9292 105.551 92.679 105.551 93.4288L104.411 98.3027H105.551L106.691 93.4288C107.451 92.3041 107.071 91.5543 106.691 90.8044Z" fill="#010101"/>
<path d="M106.694 102.054H107.834L110.874 90.0566H109.734L106.694 102.054Z" fill="#010101"/>
<path d="M112.012 87.0576H110.492L110.112 88.5573H111.252L112.012 87.0576Z" fill="#010101"/>
<path d="M112.773 96.4284C112.393 95.6786 112.393 94.9287 112.393 94.1789C112.773 93.4291 113.153 92.6793 113.533 92.3043V90.8047C113.153 90.8047 113.153 91.1796 113.153 91.1796C112.393 91.9294 111.633 93.0542 111.253 94.1789C110.873 95.3037 110.873 96.4284 111.633 97.1782C112.013 97.9281 112.773 98.303 113.533 98.303V97.1782C113.153 97.1782 113.153 96.8033 112.773 96.4284Z" fill="#010101"/>
<path d="M110.112 28.1953H33.35C29.55 28.1953 26.1299 31.1946 26.1299 35.3187V87.0568V90.0561V92.3056V93.4304V104.678C26.1299 108.427 29.17 111.801 33.35 111.801H110.112C113.912 111.801 117.332 108.802 117.332 104.678V97.5544V96.0548V90.806V89.6812V34.9438C117.332 31.1946 114.292 28.1953 110.112 28.1953ZM113.532 104.678C113.532 106.552 112.012 108.052 110.112 108.052H33.35C31.45 108.052 29.93 106.552 29.93 104.678V93.4304V92.3056V34.9438C29.93 33.0692 31.45 31.5695 33.35 31.5695H110.112C112.012 31.5695 113.532 33.0692 113.532 34.9438V90.806V92.3056V97.5544V98.6792V104.678Z" fill="#CBA484"/>
<path d="M59.5703 78.4307V108.424C60.3303 108.424 61.0903 108.424 61.4704 108.424V78.4307H59.5703Z" fill="#DB2329"/>
<path d="M70.9694 140.668C32.5885 140.668 1.04785 109.175 1.04785 70.9341C1.04785 32.6929 32.2085 0.825195 70.9694 0.825195C109.35 0.825195 140.891 32.318 140.891 70.5592C140.891 108.8 109.35 140.668 70.9694 140.668ZM70.9694 6.07399C35.6286 6.07399 6.74797 34.9424 6.74797 70.5592C6.74797 106.176 35.6286 135.044 70.9694 135.044C106.31 135.044 135.191 106.176 135.191 70.5592C135.191 34.9424 106.31 6.07399 70.9694 6.07399Z" fill="#CBA484"/>
<circle cx="70.027" cy="70.2965" r="69.9215" fill="url(#paint0_radial_23_22604)"/>
<defs>
<radialGradient id="paint0_radial_23_22604" cx="0" cy="0" r="1" gradientUnits="userSpaceOnUse" gradientTransform="translate(109.69 66.9392) rotate(-180) scale(131.249)">
<stop offset="0.208333" stop-opacity="0"/>
<stop offset="0.848958"/>
</radialGradient>
</defs>
</svg>
